<?xml version="1.0" encoding="iso-8859-1"?>
<!-- Generator: Adobe Illustrator 18.0.0, SVG Export Plug-In . SVG Version: 6.00 Build 0)  -->
<!DOCTYPE svg PUBLIC "-//W3C//DTD SVG 1.1//EN" "http://www.w3.org/Graphics/SVG/1.1/DTD/svg11.dtd">
<svg version="1.1" id="Capa_1" xmlns="http://www.w3.org/2000/svg" xmlns:xlink="http://www.w3.org/1999/xlink" x="0px" y="0px"
	 viewBox="0 0 49.818 49.818" style="enable-background:new 0 0 49.818 49.818;" xml:space="preserve">
<g>
	<path style="fill:#994530;" d="M0.953,38.891c0,0,3.184,6.921,11.405,9.64c1.827,0.604,3.751,0.751,5.667,0.922
		c7.866,0.703,26.714-0.971,31.066-18.976c1.367-5.656,0.76-11.612-1.429-17.003C44.51,5.711,37.447-4.233,22.831,2.427
		c-8.328,3.795-7.696,10.279-5.913,14.787c2.157,5.456-2.243,11.081-8.06,10.316C1.669,26.584-1.825,30.904,0.953,38.891z"/>
	<g>
		<path style="fill:#D75A4A;" d="M4.69,37.18c0.402,0.785,3.058,5.552,9.111,7.554c1.335,0.441,2.863,0.577,4.482,0.72l0.282,0.025
			c0.818,0.073,1.698,0.11,2.617,0.11c18.18,0,22.854-11.218,24.02-16.041c1.134-4.693,0.706-9.703-1.235-14.488
			C41.049,7.874,36.856,4.229,31.506,4.229c-2.21,0-4.683,0.615-7.349,1.83c-2.992,1.364-6.676,3.921-4.13,10.36
			c1.284,3.25,0.912,6.746-1.023,9.591c-2.17,3.191-6.002,4.901-9.895,4.39c-0.493-0.065-0.966-0.099-1.404-0.099
			c-1.077,0-2.502,0.198-3.173,1.143C3.765,32.524,3.823,34.609,4.69,37.18z"/>
		<path style="fill:#C64940;" d="M21.184,46.589c-0.948,0-1.858-0.038-2.706-0.114l-0.283-0.025
			c-1.674-0.147-3.257-0.287-4.706-0.767c-6.376-2.108-9.188-7.073-9.688-8.047l-0.058-0.137c-0.984-2.917-0.993-5.273-0.026-6.635
			c0.912-1.285,2.89-1.807,5.524-1.456c3.537,0.466,6.959-1.054,8.936-3.961c1.746-2.565,2.082-5.723,0.921-8.661
			c-3.189-8.065,2.707-10.754,4.645-11.638c9.68-4.407,16.81-1.155,21.152,9.535c2.021,4.981,2.464,10.202,1.28,15.099
			C44.953,34.836,40.073,46.589,21.184,46.589z M5.613,36.787c0.401,0.758,2.936,5.155,8.503,6.997
			c1.229,0.406,2.699,0.536,4.256,0.673l0.284,0.025c0.788,0.07,1.639,0.106,2.527,0.106c17.469,0,21.938-10.683,23.048-15.276
			c1.084-4.487,0.672-9.286-1.19-13.877C40.29,8.663,36.409,5.229,31.506,5.229c-2.067,0-4.4,0.585-6.934,1.74
			c-3.02,1.376-5.81,3.532-3.615,9.083c1.408,3.563,0.998,7.398-1.126,10.521c-2.404,3.534-6.563,5.386-10.852,4.818
			c-1.793-0.236-3.197,0.019-3.632,0.632C4.912,32.636,4.756,34.207,5.613,36.787z"/>
	</g>
	<g>
		<circle style="fill:#E6E6E6;" cx="32.455" cy="12.779" r="4"/>
		<path style="fill:#7A3726;" d="M32.455,17.779c-2.757,0-5-2.243-5-5s2.243-5,5-5s5,2.243,5,5S35.212,17.779,32.455,17.779z
			 M32.455,9.779c-1.654,0-3,1.346-3,3s1.346,3,3,3s3-1.346,3-3S34.109,9.779,32.455,9.779z"/>
	</g>
	<path style="fill:#C64940;" d="M25.617,45.684l-1.941-0.479c0.435-1.761-1.063-3.216-3.446-4.859
		c-2.875-1.984-4.817-5.117-5.327-8.595c-0.186-1.266-0.425-2.285-0.428-2.295l1.922-0.548c0.01,0.028,1.09,3.104,3.978,4.314
		c2.094,0.877,4.667,0.598,7.648-0.832c11.578-5.554,17.102-2.646,17.332-2.52l-0.967,1.752c-0.04-0.021-4.97-2.48-15.5,2.57
		c-3.53,1.694-6.662,1.984-9.312,0.863c-0.801-0.339-1.49-0.779-2.078-1.265c0.769,1.974,2.11,3.695,3.867,4.907
		C23.149,39.931,26.472,42.222,25.617,45.684z"/>
	<path style="fill:#C64940;" d="M27.074,27.586c-5.37,0-7.605-3.694-7.633-3.74l1.727-1.01l-0.863,0.505l0.859-0.511
		c0.108,0.179,2.714,4.335,9.738,2.105c1.54-0.794,12.038-6.002,15.619-2.289l-1.439,1.389c-1.979-2.052-9.229,0.576-13.332,2.714
		l-0.154,0.064C29.892,27.364,28.389,27.586,27.074,27.586z"/>
</g>
<g>
</g>
<g>
</g>
<g>
</g>
<g>
</g>
<g>
</g>
<g>
</g>
<g>
</g>
<g>
</g>
<g>
</g>
<g>
</g>
<g>
</g>
<g>
</g>
<g>
</g>
<g>
</g>
<g>
</g>
</svg>
