<?xml version="1.0" encoding="iso-8859-1"?>
<!-- Generator: Adobe Illustrator 18.0.0, SVG Export Plug-In . SVG Version: 6.00 Build 0)  -->
<!DOCTYPE svg PUBLIC "-//W3C//DTD SVG 1.1//EN" "http://www.w3.org/Graphics/SVG/1.1/DTD/svg11.dtd">
<svg version="1.1" id="Capa_1" xmlns="http://www.w3.org/2000/svg" xmlns:xlink="http://www.w3.org/1999/xlink" x="0px" y="0px"
	 viewBox="0 0 53.239 53.239" style="enable-background:new 0 0 53.239 53.239;" xml:space="preserve">
<g>
	<g>
		<path style="fill:#CC5C56;" d="M12.094,16.65c-2.309-1.062-3.317-3.79-2.255-6.098c0.896-1.947,0.319-4.192-1.268-5.484
			C8.205,4.77,8.297,4.19,8.74,4.026L19.629,0c2.309,1.062,3.317,3.79,2.255,6.098s-0.054,5.036,2.255,6.098s3.317,3.79,2.255,6.098
			c-1.062,2.309-0.054,5.036,2.255,6.098c2.309,1.062,3.317,3.79,2.255,6.098c-1.062,2.309-0.054,5.036,2.255,6.098
			c2.309,1.062,3.317,3.79,2.255,6.098c-0.892,1.94-0.323,4.175,1.251,5.47c0.373,0.306,0.28,0.896-0.173,1.064l-10.867,4.019
			c-2.309-1.062-3.317-3.79-2.255-6.098s0.054-5.036-2.255-6.098c-2.309-1.062-3.317-3.79-2.255-6.098
			c1.062-2.309,0.054-5.036-2.255-6.098c-2.309-1.062-3.317-3.79-2.255-6.098S14.403,17.712,12.094,16.65"/>
		<path style="fill:#E6E6E6;" d="M28.979,47.135c1.47-3.194,0.067-6.988-3.126-8.457c-1.621-0.746-2.334-2.673-1.587-4.296
			c1.469-3.194,0.067-6.988-3.126-8.457c-1.622-0.746-2.335-2.674-1.589-4.295c1.469-3.194,0.067-6.988-3.126-8.457
			c-1.587-0.73-2.303-2.591-1.635-4.19c2.09-3.126,1.289-4.627-0.559-5.912c-0.367-0.255-0.677-0.485-0.925-0.783l-3.018,1.116
			c0.622,1.174,1.524,1.807,2.153,2.243c0.142,0.098,0.32,0.223,0.433,0.315c-0.055,0.183-0.225,0.599-0.755,1.374
			c-0.05,0.072-0.094,0.15-0.131,0.23c-1.47,3.194-0.067,6.988,3.126,8.457c1.622,0.747,2.335,2.674,1.588,4.296
			c-1.469,3.193-0.067,6.987,3.127,8.456c1.622,0.747,2.335,2.674,1.588,4.296c-1.47,3.194-0.067,6.988,3.125,8.457
			c1.622,0.746,2.335,2.674,1.588,4.296c-0.922,2.004-0.453,4.853,0.646,6.938l2.973-1.099
			C28.929,50.379,28.491,48.195,28.979,47.135z"/>
		<path style="fill:#E6E6E6;" d="M28.979,47.135c1.47-3.194,0.067-6.988-3.126-8.457c-1.621-0.746-2.334-2.673-1.587-4.296
			c1.469-3.194,0.067-6.988-3.126-8.457c-1.622-0.746-2.335-2.674-1.589-4.295c1.469-3.194,0.067-6.988-3.126-8.457
			c-1.587-0.73-2.303-2.591-1.635-4.19c2.09-3.126,1.289-4.627-0.559-5.912c-0.367-0.255-0.677-0.485-0.925-0.783l-3.018,1.116
			c0.622,1.174,1.524,1.807,2.153,2.243c0.142,0.098,0.32,0.223,0.433,0.315c-0.055,0.183-0.225,0.599-0.755,1.374
			c-0.05,0.072-0.094,0.15-0.131,0.23c-1.47,3.194-0.067,6.988,3.126,8.457c1.622,0.747,2.335,2.674,1.588,4.296
			c-1.469,3.193-0.067,6.987,3.127,8.456c1.622,0.747,2.335,2.674,1.588,4.296c-1.47,3.194-0.067,6.988,3.125,8.457
			c1.622,0.746,2.335,2.674,1.588,4.296c-0.922,2.004-0.453,4.853,0.646,6.938l2.973-1.099
			C28.929,50.379,28.491,48.195,28.979,47.135z"/>
		<path style="fill:#E85D65;" d="M32.023,46.061c1.47-3.194,0.067-6.988-3.126-8.457c-1.621-0.746-2.334-2.673-1.587-4.296
			c1.469-3.194,0.067-6.988-3.126-8.457c-1.622-0.746-2.335-2.674-1.589-4.295c1.469-3.194,0.067-6.988-3.126-8.457
			c-1.587-0.73-2.303-2.591-1.635-4.19c2.09-3.126,1.289-4.627-0.559-5.912c-0.367-0.255-0.677-0.485-0.925-0.783l-3.018,1.116
			c0.622,1.174,1.524,1.807,2.153,2.243c0.142,0.098,0.32,0.223,0.433,0.315c-0.055,0.183-0.225,0.599-0.755,1.374
			c-0.05,0.072-0.094,0.15-0.131,0.23c-1.47,3.194-0.067,6.988,3.126,8.457c1.622,0.747,2.335,2.674,1.588,4.296
			c-1.469,3.193-0.067,6.987,3.127,8.456c1.622,0.747,2.335,2.674,1.588,4.296c-1.47,3.194-0.067,6.988,3.125,8.457
			c1.622,0.746,2.335,2.674,1.588,4.296c-0.922,2.004-0.453,4.853,0.646,6.938l2.973-1.099
			C31.974,49.305,31.535,47.121,32.023,46.061z"/>
	</g>
	<g>
		<path style="fill:#B63E32;" d="M30.266,13.994c-1.824-1.77-1.868-4.677-0.098-6.501c1.492-1.538,1.695-3.847,0.628-5.594
			C30.55,1.496,30.83,0.98,31.302,0.973L42.91,0.798c1.824,1.77,1.868,4.677,0.098,6.501s-1.726,4.731,0.098,6.501
			c1.824,1.77,1.868,4.677,0.098,6.501c-1.77,1.824-1.726,4.731,0.098,6.501c1.824,1.77,1.868,4.677,0.098,6.501
			c-1.77,1.824-1.726,4.731,0.098,6.501c1.824,1.77,1.868,4.677,0.098,6.501c-1.487,1.532-1.693,3.83-0.64,5.574
			c0.249,0.413-0.034,0.938-0.517,0.946L30.855,53c-1.824-1.77-1.868-4.677-0.098-6.501c1.77-1.824,1.726-4.731-0.098-6.501
			c-1.824-1.77-1.868-4.677-0.098-6.501c1.77-1.824,1.726-4.731-0.098-6.501c-1.824-1.77-1.868-4.677-0.098-6.501
			C32.134,18.671,32.09,15.763,30.266,13.994"/>
		<path style="fill:#E6E6E6;" d="M36.049,48.359c2.448-2.523,2.388-6.568-0.135-9.015c-1.281-1.243-1.312-3.297-0.068-4.579
			c2.448-2.523,2.388-6.568-0.135-9.016c-1.282-1.243-1.313-3.298-0.069-4.579c2.448-2.523,2.388-6.568-0.135-9.016
			c-1.254-1.216-1.31-3.209-0.148-4.495c3.011-2.252,2.755-3.935,1.44-5.762c-0.261-0.362-0.477-0.682-0.612-1.047l-3.218,0.049
			c0.196,1.314,0.836,2.211,1.284,2.832c0.101,0.139,0.228,0.316,0.303,0.441c-0.112,0.154-0.411,0.49-1.169,1.045
			c-0.071,0.052-0.138,0.11-0.2,0.173c-2.448,2.523-2.388,6.568,0.135,9.015c1.281,1.244,1.312,3.298,0.069,4.58
			c-2.448,2.523-2.387,6.567,0.136,9.015c1.281,1.244,1.312,3.298,0.069,4.58c-2.448,2.523-2.388,6.567,0.134,9.015
			c1.281,1.243,1.312,3.298,0.069,4.58c-1.536,1.583-2.041,4.427-1.699,6.758l3.17-0.048C34.923,51.401,35.236,49.197,36.049,48.359
			z"/>
		<path style="fill:#E6E6E6;" d="M36.049,48.359c2.448-2.523,2.388-6.568-0.135-9.015c-1.281-1.243-1.312-3.297-0.068-4.579
			c2.448-2.523,2.388-6.568-0.135-9.016c-1.282-1.243-1.313-3.298-0.069-4.579c2.448-2.523,2.388-6.568-0.135-9.016
			c-1.254-1.216-1.31-3.209-0.148-4.495c3.011-2.252,2.755-3.935,1.44-5.762c-0.261-0.362-0.477-0.682-0.612-1.047l-3.218,0.049
			c0.196,1.314,0.836,2.211,1.284,2.832c0.101,0.139,0.228,0.316,0.303,0.441c-0.112,0.154-0.411,0.49-1.169,1.045
			c-0.071,0.052-0.138,0.11-0.2,0.173c-2.448,2.523-2.388,6.568,0.135,9.015c1.281,1.244,1.312,3.298,0.069,4.58
			c-2.448,2.523-2.387,6.567,0.136,9.015c1.281,1.244,1.312,3.298,0.069,4.58c-2.448,2.523-2.388,6.567,0.134,9.015
			c1.281,1.243,1.312,3.298,0.069,4.58c-1.536,1.583-2.041,4.427-1.699,6.758l3.17-0.048C34.923,51.401,35.236,49.197,36.049,48.359
			z"/>
		<path style="fill:#E85D65;" d="M39.277,48.359c2.448-2.523,2.388-6.568-0.135-9.015c-1.281-1.243-1.312-3.297-0.068-4.579
			c2.448-2.523,2.388-6.568-0.135-9.016c-1.282-1.243-1.313-3.298-0.069-4.579c2.448-2.523,2.388-6.568-0.135-9.016
			c-1.254-1.216-1.31-3.209-0.148-4.495c3.011-2.252,2.755-3.935,1.44-5.762c-0.261-0.362-0.477-0.682-0.612-1.047l-3.218,0.049
			c0.196,1.314,0.836,2.211,1.284,2.832c0.101,0.139,0.228,0.316,0.303,0.441c-0.112,0.154-0.411,0.49-1.169,1.045
			c-0.071,0.052-0.138,0.11-0.2,0.173c-2.448,2.523-2.388,6.568,0.135,9.015c1.281,1.244,1.312,3.298,0.069,4.58
			c-2.448,2.523-2.387,6.567,0.136,9.015c1.281,1.244,1.312,3.298,0.069,4.58c-2.448,2.523-2.388,6.567,0.134,9.015
			c1.281,1.243,1.312,3.298,0.069,4.58c-1.536,1.583-2.041,4.427-1.699,6.758l3.17-0.048C38.151,51.401,38.464,49.197,39.277,48.359
			z"/>
	</g>
</g>
<g>
</g>
<g>
</g>
<g>
</g>
<g>
</g>
<g>
</g>
<g>
</g>
<g>
</g>
<g>
</g>
<g>
</g>
<g>
</g>
<g>
</g>
<g>
</g>
<g>
</g>
<g>
</g>
<g>
</g>
</svg>
