<?xml version="1.0" encoding="iso-8859-1"?>
<!-- Generator: Adobe Illustrator 18.0.0, SVG Export Plug-In . SVG Version: 6.00 Build 0)  -->
<!DOCTYPE svg PUBLIC "-//W3C//DTD SVG 1.1//EN" "http://www.w3.org/Graphics/SVG/1.1/DTD/svg11.dtd">
<svg version="1.1" id="Capa_1" xmlns="http://www.w3.org/2000/svg" xmlns:xlink="http://www.w3.org/1999/xlink" x="0px" y="0px"
	 viewBox="0 0 57.964 57.964" style="enable-background:new 0 0 57.964 57.964;" xml:space="preserve">
<g>
	<path style="fill:#FBD490;" d="M29.466,26.926c4.827,0,9.266-0.787,12.856-2.098c0.427-1.989,0.66-4.105,0.66-6.303
		C42.982,7.047,35.248,0,28.965,0c-5.347,0-14.017,7.047-14.017,18.525c0,2.041,0.207,4.007,0.576,5.871
		C19.283,25.964,24.134,26.926,29.466,26.926z"/>
	<path style="fill:#F4F4DC;" d="M28.965,0C24.63,0,18.111,3.924,15.8,12.312c0.133,0.058,0.22,0.096,0.22,0.096l5.185-3.111
		c0,0,2.722,5.574,3.111,6.222s3.111-3.111,3.111-3.111l4.148,5.185l4.148-8.296l3.111,4.148l2.873-2.873
		C39.255,3.108,33.7,0,28.965,0z"/>
	<path style="fill:#E6E6E6;" d="M36.982,50.604c-3.968-0.279-6-3.564-6-7.542v-0.943c0-1.266,0.743-2.424,1.908-2.92
		c5.892-2.507,10.865-8.982,10.865-16.589c0-0.49-0.207-1.397-0.279-1.37c-0.304,0.115-0.562,0.306-0.765,0.545
		c-0.099,0.732-0.215,1.456-0.366,2.157c-3.462,1.264-7.742,2.023-12.397,2.023c-0.193,0-0.381-0.01-0.572-0.013
		c-0.132,0.002-0.261,0.008-0.394,0.009c-4.463-0.021-8.6-0.688-12.064-1.813c-0.638-0.207-1.116-0.758-1.228-1.419
		c-0.001-0.007-0.003-0.015-0.004-0.022c-0.113-0.668-0.563-1.228-1.197-1.467c-0.072-0.027-0.279,0.88-0.279,1.37
		c0,7.607,4.973,14.082,10.865,16.589c1.165,0.496,1.908,1.654,1.908,2.92v0.943c0,3.977-2.032,7.263-6,7.542
		c-6.233,0.437-6.172,1.661-6.172,3.362c0,2.469,2.747,3.978,14.172,3.998c11.425-0.02,14.172-1.53,14.172-3.998
		C43.154,52.265,43.215,51.041,36.982,50.604z"/>
</g>
<g>
</g>
<g>
</g>
<g>
</g>
<g>
</g>
<g>
</g>
<g>
</g>
<g>
</g>
<g>
</g>
<g>
</g>
<g>
</g>
<g>
</g>
<g>
</g>
<g>
</g>
<g>
</g>
<g>
</g>
</svg>
